<?xml version="1.0" encoding="UTF-8" standalone="no"?>
<svg
   xmlns:dc="http://purl.org/dc/elements/1.1/"
   xmlns:cc="http://creativecommons.org/ns#"
   xmlns:rdf="http://www.w3.org/1999/02/22-rdf-syntax-ns#"
   xmlns:svg="http://www.w3.org/2000/svg"
   xmlns="http://www.w3.org/2000/svg"
   viewBox="0 0 139.22231 138.5708"
   height="138.5708"
   width="139.22231"
   version="1.1"
   id="svg3348">
  <metadata
     id="metadata3354">
    <rdf:RDF>
      <cc:Work
         rdf:about="">
        <dc:format>image/svg+xml</dc:format>
        <dc:type
           rdf:resource="http://purl.org/dc/dcmitype/StillImage" />
        <dc:title></dc:title>
      </cc:Work>
    </rdf:RDF>
  </metadata>
  <defs
     id="defs3352" />
  <path
     id="path3358"
     d="M 11.3284,138.04948 C 6.9712896,137.8741 2.9224,137.32895 2.33088,136.83802 1.70796,136.32105 0.99126,131.32078 0.6277,124.95527 L 0,113.96508 11.48615,102.45129 C 17.80353,96.11871 23.50597,90.9375 24.15824,90.9375 c 3.12556,0 0.26426,4.177181 -9.71436,14.18186 l -10.90031,10.92878 0.66739,8.90166 0.66738,8.90166 8.94998,0.67101 8.94997,0.671 10.9064,-10.87798 c 9.98472,-9.95871 14.15949,-12.8163 14.15949,-9.69204 0,0.65226 -5.17406,6.34758 -11.49791,12.65625 -9.9719,9.94794 -11.8694,11.44498 -14.29688,11.27947 -1.53943,-0.10495 -6.36387,-0.33431 -10.72099,-0.50969 z m 7.92203,-18.98698 c -0.78472,-1.26971 0.27415,-2.8125 1.93033,-2.8125 0.74301,0 1.35092,0.84375 1.35092,1.875 0,1.94092 -2.26173,2.58713 -3.28125,0.9375 z m 38.67576,-5.70371 c -5.86759,-1.38326 -14.20632,-6.10716 -19.79218,-11.21232 -3.87069,-3.5376 -6.33636,-6.941751 -9.17,-12.660258 -3.50932,-7.082103 -3.91956,-8.658846 -4.33894,-16.676606 -0.38081,-7.280354 -0.10761,-10.025593 1.53635,-15.437957 8.24109,-27.132016 38.4637,-39.777376 64.06387,-26.804789 7.027794,3.561251 15.7505,12.661863 19.324,20.161196 11.75927,24.678015 -1.59571,54.438764 -27.89089,62.153074 -5.49372,1.61171 -17.8654,1.86071 -23.73221,0.47766 z m 22.24604,-3.85197 c 10.35844,-2.62647 21.48253,-11.86799 26.07984,-21.666254 3.64376,-7.765975 5.03737,-16.842658 3.69458,-24.063154 C 106.97189,47.781492 96.286814,35.484647 81.2231,30.721147 72.4003,27.931172 60.60974,28.671207 52.3633,32.532534 37.18716,39.638635 28.05251,53.732596 28.05251,70.041959 c 0,27.199981 25.20917,46.288281 52.11972,39.464861 z M 59.96545,102.83617 C 37.4388,96.4702 27.91637,70.643163 40.83179,50.94124 c 3.74686,-5.715662 7.41914,-8.692581 15.0207,-12.176463 4.6185,-2.116711 6.88383,-2.557121 13.08544,-2.543971 13.57387,0.02878 24.01654,6.296145 30.541234,18.329891 3.044896,5.615829 3.208766,6.396816 3.208766,15.293053 0,11.312031 -1.67028,15.698856 -8.87975,23.321812 -8.49323,8.980328 -22.31215,12.929108 -33.84273,9.670608 z m 18.81623,-2.71484 c 8.3121,-2.4338 15.9221,-9.418936 19.882504,-18.249923 2.644966,-5.897819 2.795176,-15.658924 0.35027,-22.763168 C 96.505704,51.818476 87.82235,43.159785 80.18793,40.335174 64.03929,34.360446 45.42383,42.814248 39.36619,58.87347 c -2.67822,7.100143 -2.26186,18.287958 0.91416,24.56403 7.25593,14.33828 23.08538,21.19767 38.50133,16.68383 z m -2.59664,-19.74832 -8.65336,-8.689489 0,-8.254252 c 0,-7.355113 0.17871,-8.220247 1.64063,-7.942085 1.34167,0.255284 1.72604,1.623272 2.10937,7.507407 l 0.46875,7.195238 7.79459,8.490934 c 6.77257,7.377618 8.4971,10.381737 5.95969,10.381737 -0.36647,0 -4.56032,-3.91027 -9.31967,-8.68949 z m -50.84086,31.12075 c 0,-1.34165 0.50486,-1.84652 1.62986,-1.62986 2.44382,0.47063 2.71636,3.5736 0.31388,3.5736 -1.34165,0 -1.94374,-0.60209 -1.94374,-1.94374 z m 88.125,-65.767107 c 0,-0.631591 2.74067,-3.910177 6.09037,-7.285745 l 6.09037,-6.137398 -9.83616,-9.802675 -9.83614,-9.802673 -6.555806,6.505577 C 94.23646,24.349353 92.62511,25.468426 91.71367,24.556985 90.80222,23.645543 93.00178,20.958333 102.23557,11.702327 108.65639,5.2660467 114.34433,0 114.87543,0 c 0.5311,0 6.22642,5.273437 12.65625,11.71875 L 139.2223,23.4375 127.53168,35.15625 c -10.97296,10.999369 -14.0625,13.321693 -14.0625,10.570402 z m 17.82912,-19.025055 3.19694,-3.298402 -9.78192,-9.815326 -9.78192,-9.815327 -3.5578,3.4741027 -3.55781,3.4741023 9.60682,9.639627 C 122.70636,25.662169 127.27061,30 127.5654,30 c 0.29478,0 1.97459,-1.484281 3.7329,-3.298402 z"
     style="fill:#666666" />
</svg>
