<?xml version="1.0" encoding="UTF-8" standalone="no"?>
<svg
   xmlns:dc="http://purl.org/dc/elements/1.1/"
   xmlns:cc="http://creativecommons.org/ns#"
   xmlns:rdf="http://www.w3.org/1999/02/22-rdf-syntax-ns#"
   xmlns:svg="http://www.w3.org/2000/svg"
   xmlns="http://www.w3.org/2000/svg"
   viewBox="0 0 144.57802 136.26897"
   height="136.26897"
   width="144.57802"
   version="1.1"
   id="svg3336">
  <metadata
     id="metadata3342">
    <rdf:RDF>
      <cc:Work
         rdf:about="">
        <dc:format>image/svg+xml</dc:format>
        <dc:type
           rdf:resource="http://purl.org/dc/dcmitype/StillImage" />
        <dc:title></dc:title>
      </cc:Work>
    </rdf:RDF>
  </metadata>
  <defs
     id="defs3340" />
  <path
     id="path3346"
     d="m 26.918798,132.47139 c -5.76719,-3.85117 -11.25308,-10.2789 -13.66157,-16.00702 l -1.32455,-3.15018 16.5578,-16.881996 c 15.26794,-15.566853 20.52952,-19.861923 19.68809,-16.071503 -0.17478,0.78733 -7.33353,8.74822 -15.90835,17.690883 l -15.59056,16.259366 1.84289,3.59217 c 2.06289,4.02099 8.39788,10.47972 12.73292,12.98163 l 2.8538,1.64703 15.74016,-16.41266 c 8.65709,-9.02696 16.26144,-16.412646 16.89856,-16.412646 0.63712,0 1.422,0.426516 1.74418,0.947806 0.78022,1.26243 -32.33145,35.61469 -34.32852,35.61469 -0.85687,0 -4.11705,-1.7089 -7.24485,-3.79757 z M 82.72153,107.37977 54.781478,79.428071 l 0.65688,-4.9518 0.65688,-4.951804 -15.36722,-15.404055 -15.36723,-15.404054 -6.82613,0.210111 c -6.17008,0.189918 -7.03354,-0.01028 -8.9841899,-2.083076 -2.59632,-2.758883 -10.29715007,-20.225645 -9.49174007,-21.52883 0.89278,-1.444546 1.60536997,-1.194046 9.78285007,3.439014 l 7.6948599,4.359621 2.50592,-2.528116 2.50593,-2.528115 -4.4292,-8.2990665 c -3.55295,-6.6572252 -4.18585,-8.5010362 -3.19909,-9.31997021 0.90704,-0.75278 2.19341,-0.555551 4.89795,0.75096401 2.01731,0.974527 6.18476,2.88486 9.26098,4.2451862 8.61481,3.809518 8.93811,4.282623 8.93811,13.0794995 l 0,7.579024 15.5344,15.554586 15.5344,15.554586 4.387484,-0.702172 4.387473,-0.702173 27.890625,27.80803 c 19.62353,19.565429 27.89062,28.417189 27.89062,29.863149 0,3.74976 -7.64138,13.53702 -13.92773,17.83898 -3.23399,2.21313 -6.59386,4.02387 -7.46637,4.02387 -0.8725,0 -14.159388,-12.57826 -29.52641,-27.95169 z m 37.48207,18.79495 c 1.6323,-1.20735 4.56336,-4.51186 6.51348,-7.34334 l 3.54568,-5.14816 -26.66974,-26.730199 -26.669725,-26.730178 -4.687503,0.551676 -4.687504,0.551676 -16.73981,-16.778051 -16.73981,-16.778052 -0.13519,-7.859943 -0.13519,-7.859943 -6.09375,-2.9314425 c -3.35156,-1.612295 -6.20869,-2.833293 -6.34917,-2.713331 -0.14048,0.119962 1.01968,2.642108 2.57813,5.6047675 1.55845,2.962659 2.83354,5.888789 2.83354,6.50251 0,0.613721 -1.82206,2.904072 -4.04902,5.089668 l -4.04902,3.973813 -6.3129,-3.177265 C 8.8840081,22.651431 6.2325081,21.689334 6.4638781,22.260934 c 0.23137,0.571599 1.58907,3.709871 3.01711,6.973936 l 2.5964399,5.934664 7.36563,-0.279099 7.36563,-0.279097 16.69176,16.672437 16.69176,16.672438 -0.43101,5.197448 -0.43102,5.19744 26.525636,26.537889 26.525616,26.53789 2.42718,-1.52849 c 1.33496,-0.84066 3.7627,-2.51631 5.39499,-3.72367 z M 96.369522,91.965321 c -21.10584,-21.11803 -25.42241,-26.008865 -22.95496,-26.008865 1.21812,0 48.039978,47.292044 48.039978,48.522384 0,0.64082 -0.31951,1.16512 -0.71002,1.16512 -0.39051,0 -11.35926,-10.65539 -24.374998,-23.678639 z M 23.954538,115.39824 c 0,-0.65076 6.43854,-7.6117 14.30787,-15.468746 12.76853,-12.748603 16.62963,-15.899643 16.62963,-13.571423 0,0.9186 -29.32578,30.223389 -30.24503,30.223389 -0.38086,0 -0.69247,-0.53244 -0.69247,-1.18322 z M 95.507522,60.706285 c -0.408671,-1.064996 3.22397,-5.299808 12.522768,-14.598609 11.82487,-11.824864 13.47981,-13.14959 17.02065,-13.624517 3.78244,-0.507332 4.12233,-0.845953 9.53791,-9.502329 3.08863,-4.936938 5.61569,-9.694888 5.61569,-10.573225 0,-0.878335 -1.31624,-2.7045165 -2.92498,-4.0581825 -2.613,-2.198693 -3.13797,-2.324424 -4.92188,-1.178789 -1.09829,0.705331 -5.47736,3.5034955 -9.73126,6.2181435 -7.21943,4.607107 -7.73438,5.149344 -7.73438,8.144221 0,2.846301 -1.50809,4.792817 -13.35937,17.243112 -11.932078,12.53518 -16.640625,16.217879 -16.640625,13.015154 0,-0.572105 5.90625,-7.305365 13.124997,-14.962799 11.827388,-12.546141 13.124998,-14.253712 13.124998,-17.271666 0,-3.23969 0.35379,-3.579743 10.83349,-10.4127185 9.00298,-5.8701342 11.27761,-6.9661102 13.46199,-6.4863402 4.56029,1.001608 10.50661,9.0884147 8.85996,12.0492617 -3.58923,6.453792 -11.31338,18.317673 -12.7666,19.608829 -1.01561,0.902344 -3.13822,1.640625 -4.71692,1.640625 -2.4351,0 -4.87779,1.990304 -16.1082,13.125 -7.28081,7.21875 -13.549398,13.125 -13.930198,13.125 -0.3808,0 -0.95141,-0.675077 -1.26804,-1.500171 z"
     style="fill:#666666" />
</svg>
